<svg width="51" height="52" viewBox="0 0 51 52" fill="none" xmlns="http://www.w3.org/2000/svg">
<path d="M20.3851 23.7705C19.2333 23.7705 18.3259 24.7997 18.3259 26.0563C18.3259 27.3087 19.2546 28.3422 20.3851 28.3422C21.5347 28.3422 22.4421 27.3087 22.4421 26.0563C22.4654 24.7975 21.5347 23.7705 20.3851 23.7705ZM27.7546 23.7705C26.6028 23.7705 25.6954 24.7997 25.6954 26.0563C25.6954 27.3087 26.6241 28.3422 27.7546 28.3422C28.9042 28.3422 29.8116 27.3087 29.8116 26.0563C29.8094 24.7975 28.9042 23.7705 27.7546 23.7705Z" fill="white"/>
<path d="M37.5657 6.5H10.5124C8.23225 6.5 6.375 8.39367 6.375 10.7402V38.5688C6.375 40.9153 8.23225 42.809 10.5124 42.809H33.405L32.3319 38.9978L34.918 41.4483L37.3596 43.7537L41.7031 47.6667V10.7402C41.7031 8.39367 39.8459 6.5 37.5657 6.5ZM29.7712 33.3818C29.7712 33.3818 29.0445 32.4978 28.441 31.7113C31.0845 30.9487 32.0939 29.263 32.0939 29.263C31.2651 29.8177 30.4789 30.212 29.7712 30.4807C28.7619 30.9097 27.795 31.1978 26.8451 31.3647C24.9071 31.733 23.1306 31.6312 21.6155 31.343C20.4659 31.1155 19.4777 30.7862 18.649 30.4547C18.1858 30.2705 17.6779 30.0473 17.1764 29.7592C17.1148 29.7137 17.0553 29.6963 16.9958 29.6552C16.9532 29.6335 16.9341 29.614 16.9129 29.5902C16.5495 29.3865 16.3476 29.2435 16.3476 29.2435C16.3476 29.2435 17.3166 30.8902 19.8815 31.6723C19.2759 32.4523 18.5279 33.3818 18.5279 33.3818C14.0675 33.2367 12.3739 30.2532 12.3739 30.2532C12.3739 23.6253 15.2809 18.2542 15.2809 18.2542C18.1879 16.029 20.9525 16.0918 20.9525 16.0918L21.1544 16.3388C17.5206 17.4113 15.844 19.0363 15.844 19.0363C15.844 19.0363 16.2903 18.7893 17.0361 18.4405C19.1951 17.4742 20.91 17.2055 21.6176 17.1427C21.7388 17.1232 21.8407 17.1015 21.9619 17.1015C23.1944 16.9368 24.5863 16.8957 26.0376 17.0603C27.9565 17.2878 30.0177 17.8642 32.1151 19.0363C32.1151 19.0363 30.5192 17.4937 27.0874 16.4233L27.37 16.094C27.37 16.094 30.1367 16.0312 33.0416 18.2563C33.0416 18.2563 35.9486 23.6275 35.9486 30.2553C35.9486 30.2532 34.2337 33.2367 29.7712 33.3818Z" fill="white"/>
</svg>
