<svg width="51" height="51" viewBox="0 0 51 51" fill="none" xmlns="http://www.w3.org/2000/svg">
<path fill-rule="evenodd" clip-rule="evenodd" d="M25.5549 4.25C13.8482 4.25 4.36011 13.7381 4.36011 25.4447C4.36011 34.8075 10.4312 42.7529 18.8547 45.5579C19.9151 45.7491 20.2976 45.0968 20.2976 44.5358C20.2976 44.0321 20.2806 42.6976 20.2742 40.9317C14.3774 42.211 13.1321 38.0885 13.1321 38.0885C12.1716 35.6405 10.7797 34.9881 10.7797 34.9881C8.85661 33.6728 10.9264 33.7025 10.9264 33.7025C13.0556 33.8512 14.1712 35.887 14.1712 35.887C16.0625 39.1255 19.1352 38.1905 20.338 37.6486C20.5314 36.278 21.0839 35.343 21.6874 34.8139C16.9826 34.2805 12.0356 32.4615 12.0356 24.3376C12.0356 22.0278 12.8622 20.1322 14.2116 18.6532C13.997 18.1156 13.2639 15.9587 14.422 13.0433C14.422 13.0433 16.2006 12.4716 20.2487 15.2129C21.9445 14.7432 23.7529 14.5074 25.5527 14.4989C27.3569 14.5074 29.1674 14.7432 30.8567 15.2129C34.907 12.4695 36.6835 13.0433 36.6835 13.0433C37.8416 15.9587 37.1149 18.1156 36.8939 18.6532C38.2539 20.1322 39.0699 22.0256 39.0699 24.3376C39.0699 32.4827 34.1186 34.272 29.3969 34.7969C30.1512 35.4514 30.8312 36.7434 30.8312 38.7196C30.8312 41.5544 30.8057 43.8409 30.8057 44.5358C30.8057 45.1031 31.184 45.7619 32.2656 45.5536C40.6849 42.7444 46.7496 34.8054 46.7496 25.4447C46.7496 13.7381 37.2615 4.25 25.5549 4.25Z" fill="white"/>
</svg>
