<svg width="42" height="42" viewBox="0 0 42 42" fill="none" xmlns="http://www.w3.org/2000/svg">
<path d="M30.5224 23.7155C30.45 23.6431 30.3414 23.6431 30.2328 23.6793L29.9793 23.7879C28.7483 24.4034 27.3724 24.6931 25.9966 24.6931C25.9241 24.6931 25.8879 24.7293 25.8879 24.7655C25.7431 25.4172 25.2 25.8879 24.5121 25.8879H21.6879V23.5345H21.7241C21.9052 23.5707 22.05 23.5707 22.231 23.6069C23.4259 23.7879 24.0052 24.331 24.2586 24.5845L24.2948 24.6207C24.331 24.6569 24.4034 24.6569 24.4397 24.6207C24.4759 24.5845 24.5121 24.5483 24.5845 24.5121C25.019 24.2224 26.0328 23.6069 26.0328 20.3483C26.0328 17.0172 23.4983 14.7724 23.2086 14.6276L21.7241 14.519H21.6879V13.5776C21.9776 13.3966 22.1948 13.0707 22.1948 12.6724C22.1948 12.0931 21.7603 11.6224 21.181 11.6224C20.6017 11.6224 20.1672 12.0931 20.1672 12.6724C20.1672 13.0345 20.3483 13.3603 20.6741 13.5414V14.3379L18.5379 14.1207C18.4293 14.1207 18.3569 14.2293 18.4293 14.3017C18.7914 14.881 19.769 16.6914 19.8414 19.4069C19.9138 21.9414 19.5155 23.1362 19.3345 23.5707C19.2983 23.6069 19.2983 23.6431 19.3345 23.6793C19.3707 23.7155 19.4069 23.7155 19.4431 23.7155C19.6966 23.6793 20.131 23.6069 20.6741 23.5707V25.9241H18.3207C17.5603 25.9241 16.9086 25.2724 16.9086 24.5121V23.9328C16.9086 23.8603 16.8724 23.8241 16.8 23.8241H12.419C12.3828 23.8241 12.3103 23.8603 12.3103 23.9328C12.3103 24.0414 12.3103 24.15 12.3103 24.2586C12.3103 25.8879 12.781 27.3724 13.5776 28.6759C13.7224 28.8931 13.9759 29.0017 14.1931 28.8931L14.6638 28.6759C15.0259 28.4948 15.4603 28.4948 15.8586 28.6759L16.3655 28.8931C16.7276 29.0741 17.1621 29.0741 17.5603 28.8931L18.0672 28.6759C18.4655 28.4948 18.8638 28.4948 19.2621 28.6759L19.769 28.8931C20.1672 29.0741 20.5655 29.0741 20.9638 28.8931L21.4707 28.6759C21.869 28.4948 22.2672 28.4948 22.6655 28.6759L23.1724 28.8931C23.5707 29.0741 23.969 29.0741 24.3672 28.8931L24.8741 28.6759C25.2724 28.4948 25.6707 28.4948 26.069 28.6759L26.5759 28.8931C26.9017 29.0379 27.2638 28.8569 27.4448 28.531C27.7345 28.0603 27.9879 27.5172 28.169 27.0103C28.5672 25.8155 29.2914 24.6931 30.4138 24.15C30.5224 24.1138 30.5586 24.0052 30.5586 23.8966C30.631 23.8603 30.5948 23.7517 30.5224 23.7155ZM14.3741 22.919H18.5017C18.5741 22.919 18.6103 22.8828 18.6103 22.8103V18.3207C18.6103 18.2845 18.5741 18.2483 18.5379 18.2121L16.5103 17.2707C16.4741 17.2345 16.4017 17.2707 16.3655 17.3431L14.2655 22.7379C14.2293 22.8465 14.3017 22.919 14.3741 22.919ZM21 0C9.41379 0 0 9.41379 0 21C0 32.5862 9.41379 42 21 42C32.5862 42 42 32.5862 42 21C42 9.41379 32.5862 0 21 0ZM20.9276 36.2793C12.5638 36.2793 5.7931 29.5086 5.7931 21.1086C5.7931 12.7448 12.5638 5.93793 20.9276 5.93793C29.2914 5.93793 36.0621 12.7448 36.0621 21.1086C36.0259 29.5086 29.2552 36.2793 20.9276 36.2793ZM30.2328 23.6793L29.9793 23.7879C28.7483 24.4034 27.3724 24.6931 25.9966 24.6931C25.9241 24.6931 25.8879 24.7293 25.8879 24.7655C25.7431 25.4172 25.2 25.8879 24.5121 25.8879H21.6879V23.5345H21.7241C21.9052 23.5707 22.05 23.5707 22.231 23.6069C23.4259 23.7879 24.0052 24.331 24.2586 24.5845L24.2948 24.6207C24.331 24.6569 24.4034 24.6569 24.4397 24.6207C24.4759 24.5845 24.5121 24.5483 24.5845 24.5121C25.019 24.2224 26.0328 23.6069 26.0328 20.3483C26.0328 17.0172 23.4983 14.7724 23.2086 14.6276L21.7241 14.519H21.6879V13.5776C21.9776 13.3966 22.1948 13.0707 22.1948 12.6724C22.1948 12.0931 21.7603 11.6224 21.181 11.6224C20.6017 11.6224 20.1672 12.0931 20.1672 12.6724C20.1672 13.0345 20.3483 13.3603 20.6741 13.5414V14.3379L18.5379 14.1207C18.4293 14.1207 18.3569 14.2293 18.4293 14.3017C18.7914 14.881 19.769 16.6914 19.8414 19.4069C19.9138 21.9414 19.5155 23.1362 19.3345 23.5707C19.2983 23.6069 19.2983 23.6431 19.3345 23.6793C19.3707 23.7155 19.4069 23.7155 19.4431 23.7155C19.6966 23.6793 20.131 23.6069 20.6741 23.5707V25.9241H18.3207C17.5603 25.9241 16.9086 25.2724 16.9086 24.5121V23.9328C16.9086 23.8603 16.8724 23.8241 16.8 23.8241H12.419C12.3828 23.8241 12.3103 23.8603 12.3103 23.9328C12.3103 24.0414 12.3103 24.15 12.3103 24.2586C12.3103 25.8879 12.781 27.3724 13.5776 28.6759C13.7224 28.8931 13.9759 29.0017 14.1931 28.8931L14.6638 28.6759C15.0259 28.4948 15.4603 28.4948 15.8586 28.6759L16.3655 28.8931C16.7276 29.0741 17.1621 29.0741 17.5603 28.8931L18.0672 28.6759C18.4655 28.4948 18.8638 28.4948 19.2621 28.6759L19.769 28.8931C20.1672 29.0741 20.5655 29.0741 20.9638 28.8931L21.4707 28.6759C21.869 28.4948 22.2672 28.4948 22.6655 28.6759L23.1724 28.8931C23.5707 29.0741 23.969 29.0741 24.3672 28.8931L24.8741 28.6759C25.2724 28.4948 25.6707 28.4948 26.069 28.6759L26.5759 28.8931C26.9017 29.0379 27.2638 28.8569 27.4448 28.531C27.7345 28.0603 27.9879 27.5172 28.169 27.0103C28.5672 25.8155 29.2914 24.6931 30.4138 24.15C30.5224 24.1138 30.5586 24.0052 30.5586 23.8966C30.5586 23.8241 30.5224 23.7155 30.45 23.6793C30.45 23.6793 30.3414 23.6431 30.2328 23.6793ZM14.3741 22.919H18.5017C18.5741 22.919 18.6103 22.8828 18.6103 22.8103V18.3207C18.6103 18.2845 18.5741 18.2483 18.5379 18.2121L16.5103 17.2707C16.4741 17.2345 16.4017 17.2707 16.3655 17.3431L14.2655 22.7379C14.2293 22.8465 14.3017 22.919 14.3741 22.919Z" fill="white"/>
<path d="M18.5379 18.2483L16.5103 17.3069C16.4741 17.2707 16.4017 17.3069 16.3655 17.3793L14.2655 22.7741C14.2293 22.8465 14.3017 22.919 14.3741 22.919H18.5017C18.5741 22.919 18.6103 22.8828 18.6103 22.8103V18.3207C18.6103 18.2845 18.5741 18.2483 18.5379 18.2483ZM30.5224 23.7155C30.45 23.6431 30.3413 23.6431 30.2327 23.6793L29.9793 23.7879C28.7482 24.4034 27.3724 24.6931 25.9965 24.6931C25.9241 24.6931 25.8879 24.7293 25.8879 24.7655C25.7431 25.4172 25.2 25.8879 24.512 25.8879H21.6879V23.5345H21.7241C21.9051 23.5707 22.05 23.5707 22.231 23.6069C23.4258 23.7879 24.0051 24.331 24.2586 24.5845L24.2948 24.6207C24.331 24.6569 24.4034 24.6569 24.4396 24.6207C24.4758 24.5845 24.512 24.5483 24.5844 24.5121C25.0189 24.2224 26.0327 23.6069 26.0327 20.3483C26.0327 17.0172 23.4982 14.7724 23.2086 14.6276L21.7241 14.519H21.6879V13.5776C21.9775 13.3965 22.1948 13.0707 22.1948 12.6724C22.1948 12.0931 21.7603 11.6224 21.181 11.6224C20.6017 11.6224 20.1672 12.0931 20.1672 12.6724C20.1672 13.0345 20.3482 13.3603 20.6741 13.5414V14.3379L18.5379 14.1207C18.4293 14.1207 18.3569 14.2293 18.4293 14.3017C18.7913 14.881 19.7689 16.6914 19.8413 19.4069C19.9138 21.9414 19.5155 23.1362 19.3344 23.5707C19.2982 23.6069 19.2982 23.6431 19.3344 23.6793C19.3706 23.7155 19.4069 23.7155 19.4431 23.7155C19.6965 23.6793 20.131 23.6069 20.6741 23.5707V25.9241H18.3206C17.5603 25.9241 16.9086 25.2724 16.9086 24.5121V23.9328C16.9086 23.8603 16.8724 23.8241 16.8 23.8241H12.4189C12.3827 23.8241 12.3103 23.8603 12.3103 23.9328C12.3103 24.0414 12.3103 24.15 12.3103 24.2586C12.3103 25.8879 12.781 27.3724 13.5775 28.6759C13.7224 28.8931 13.9758 29.0017 14.1931 28.8931L14.6638 28.6759C15.0258 28.4948 15.4603 28.4948 15.8586 28.6759L16.3655 28.8931C16.7275 29.0741 17.162 29.0741 17.5603 28.8931L18.0672 28.6759C18.4655 28.4948 18.8638 28.4948 19.262 28.6759L19.7689 28.8931C20.1672 29.0741 20.5655 29.0741 20.9638 28.8931L21.4706 28.6759C21.8689 28.4948 22.2672 28.4948 22.6655 28.6759L23.1724 28.8931C23.5706 29.0741 23.9689 29.0741 24.3672 28.8931L24.8741 28.6759C25.2724 28.4948 25.6706 28.4948 26.0689 28.6759L26.5758 28.8931C26.9017 29.0379 27.2638 28.8569 27.4448 28.531C27.7344 28.0603 27.9879 27.5172 28.1689 27.0103C28.5672 25.8155 29.2913 24.6931 30.4137 24.15C30.5224 24.1138 30.5586 24.0052 30.5586 23.8965C30.631 23.8603 30.5948 23.7517 30.5224 23.7155Z" fill="white"/>
</svg>
