<?xml version="1.0" standalone="no"?>
<!DOCTYPE svg PUBLIC "-//W3C//DTD SVG 20010904//EN"
 "http://www.w3.org/TR/2001/REC-SVG-20010904/DTD/svg10.dtd">
<svg version="1.0" xmlns="http://www.w3.org/2000/svg"
 width="380.000000pt" height="380.000000pt" viewBox="0 0 380.000000 380.000000"
 preserveAspectRatio="xMidYMid meet">
<metadata>
Created by potrace 1.14, written by Peter Selinger 2001-2017
</metadata>
<g transform="translate(0.000000,380.000000) scale(0.100000,-0.100000)"
fill="#000000" stroke="none">
<path d="M0 2600 l0 -1200 100 0 100 0 0 -100 0 -100 100 0 100 0 0 -100 0
-100 100 0 100 0 0 100 0 100 -100 0 -100 0 0 300 0 300 100 0 100 0 0 200 0
200 100 0 100 0 0 300 0 300 100 0 100 0 0 200 0 200 100 0 100 0 0 100 0 100
200 0 200 0 0 -300 0 -300 400 0 400 0 0 300 0 300 200 0 200 0 0 -100 0 -100
100 0 100 0 0 -400 0 -400 100 0 100 0 0 -300 0 -300 100 0 100 0 0 -300 0
-300 -100 0 -100 0 0 100 0 100 -100 0 -100 0 0 -100 0 -100 -200 0 -200 0 0
400 0 400 -200 0 -200 0 0 -200 0 -200 100 0 100 0 0 -200 0 -200 -200 0 -200
0 0 100 0 100 -100 0 -100 0 0 -100 0 -100 100 0 100 0 0 -100 0 -100 200 0
200 0 0 100 0 100 100 0 100 0 0 -100 0 -100 200 0 200 0 0 -100 0 -100 -100
0 -100 0 0 -200 0 -200 -100 0 -100 0 0 -200 0 -200 600 0 600 0 0 1900 0
1900 -1900 0 -1900 0 0 -1200z m3600 700 l0 -100 -100 0 -100 0 0 100 0 100
100 0 100 0 0 -100z m-400 -2200 l0 -100 -100 0 -100 0 0 100 0 100 100 0 100
0 0 -100z"/>
<path d="M1400 2100 l0 -100 100 0 100 0 0 100 0 100 -100 0 -100 0 0 -100z"/>
<path d="M2800 2100 l0 -100 100 0 100 0 0 100 0 100 -100 0 -100 0 0 -100z"/>
</g>
</svg>
